<mxfile host="Electron" modified="2023-11-30T10:06:09.313Z" agent="Mozilla/5.0 (Windows NT 10.0; Win64; x64) AppleWebKit/537.36 (KHTML, like Gecko) draw.io/21.4.0 Chrome/112.0.5615.204 Electron/24.5.1 Safari/537.36" etag="TGW1xHZOu_qYKOzN7Abr" version="21.4.0" type="device" pages="2">
  <diagram id="C5RBs43oDa-KdzZeNtuy" name="kube-proxy-class">
    <mxGraphModel dx="4052" dy="1289" grid="1" gridSize="10" guides="1" tooltips="1" connect="1" arrows="1" fold="1" page="1" pageScale="1" pageWidth="827" pageHeight="1169" math="0" shadow="0">
      <root>
        <mxCell id="WIyWlLk6GJQsqaUBKTNV-0" />
        <mxCell id="WIyWlLk6GJQsqaUBKTNV-1" parent="WIyWlLk6GJQsqaUBKTNV-0" />
        <mxCell id="RBWgXp1GV2F_EwngmbVW-4" value="ProxyServer" style="swimlane;fontStyle=1;align=center;verticalAlign=top;childLayout=stackLayout;horizontal=1;startSize=26;horizontalStack=0;resizeParent=1;resizeParentMax=0;resizeLast=0;collapsible=1;marginBottom=0;whiteSpace=wrap;html=1;sketch=1;hachureGap=4;jiggle=2;curveFitting=1;fontFamily=Architects Daughter;fontSize=20;fontSource=https%3A%2F%2Ffonts.googleapis.com%2Fcss%3Ffamily%3DArchitects%2BDaughter;" vertex="1" parent="WIyWlLk6GJQsqaUBKTNV-1">
          <mxGeometry x="30" y="200" width="320" height="360" as="geometry" />
        </mxCell>
        <mxCell id="RBWgXp1GV2F_EwngmbVW-5" value="+ Provider: proxy.Provider" style="text;strokeColor=none;fillColor=none;align=left;verticalAlign=top;spacingLeft=4;spacingRight=4;overflow=hidden;rotatable=0;points=[[0,0.5],[1,0.5]];portConstraint=eastwest;whiteSpace=wrap;html=1;fontSize=20;fontFamily=Architects Daughter;fontSource=https%3A%2F%2Ffonts.googleapis.com%2Fcss%3Ffamily%3DArchitects%2BDaughter;" vertex="1" parent="RBWgXp1GV2F_EwngmbVW-4">
          <mxGeometry y="26" width="320" height="26" as="geometry" />
        </mxCell>
        <mxCell id="RBWgXp1GV2F_EwngmbVW-6" value="" style="line;strokeWidth=1;fillColor=none;align=left;verticalAlign=middle;spacingTop=-1;spacingLeft=3;spacingRight=3;rotatable=0;labelPosition=right;points=[];portConstraint=eastwest;strokeColor=inherit;sketch=1;hachureGap=4;jiggle=2;curveFitting=1;fontFamily=Architects Daughter;fontSize=20;fontSource=https%3A%2F%2Ffonts.googleapis.com%2Fcss%3Ffamily%3DArchitects%2BDaughter;" vertex="1" parent="RBWgXp1GV2F_EwngmbVW-4">
          <mxGeometry y="52" width="320" height="8" as="geometry" />
        </mxCell>
        <mxCell id="RBWgXp1GV2F_EwngmbVW-7" value="+ Run():error 实例化 informer 监听器，监听 apiserver 反馈的 service, endpoints, node 变动事件." style="text;strokeColor=none;fillColor=none;align=left;verticalAlign=top;spacingLeft=4;spacingRight=4;overflow=hidden;rotatable=0;points=[[0,0.5],[1,0.5]];portConstraint=eastwest;whiteSpace=wrap;html=1;fontSize=20;fontFamily=Architects Daughter;fontSource=https%3A%2F%2Ffonts.googleapis.com%2Fcss%3Ffamily%3DArchitects%2BDaughter;" vertex="1" parent="RBWgXp1GV2F_EwngmbVW-4">
          <mxGeometry y="60" width="320" height="300" as="geometry" />
        </mxCell>
        <mxCell id="o1STPo-kF5ZtZgtK5Taq-0" value="ServiceConfig" style="swimlane;fontStyle=1;align=center;verticalAlign=top;childLayout=stackLayout;horizontal=1;startSize=26;horizontalStack=0;resizeParent=1;resizeParentMax=0;resizeLast=0;collapsible=1;marginBottom=0;whiteSpace=wrap;html=1;sketch=1;hachureGap=4;jiggle=2;curveFitting=1;fontFamily=Architects Daughter;fontSize=20;fontSource=https%3A%2F%2Ffonts.googleapis.com%2Fcss%3Ffamily%3DArchitects%2BDaughter;" vertex="1" parent="WIyWlLk6GJQsqaUBKTNV-1">
          <mxGeometry x="590" y="190" width="410" height="230" as="geometry" />
        </mxCell>
        <mxCell id="o1STPo-kF5ZtZgtK5Taq-1" value="+ listerSynced: cache.InformerSynced&lt;br&gt;+ eventHandlers: []ServiceHandler" style="text;strokeColor=none;fillColor=none;align=left;verticalAlign=top;spacingLeft=4;spacingRight=4;overflow=hidden;rotatable=0;points=[[0,0.5],[1,0.5]];portConstraint=eastwest;whiteSpace=wrap;html=1;fontSize=20;fontFamily=Architects Daughter;fontSource=https%3A%2F%2Ffonts.googleapis.com%2Fcss%3Ffamily%3DArchitects%2BDaughter;" vertex="1" parent="o1STPo-kF5ZtZgtK5Taq-0">
          <mxGeometry y="26" width="410" height="74" as="geometry" />
        </mxCell>
        <mxCell id="o1STPo-kF5ZtZgtK5Taq-2" value="" style="line;strokeWidth=1;fillColor=none;align=left;verticalAlign=middle;spacingTop=-1;spacingLeft=3;spacingRight=3;rotatable=0;labelPosition=right;points=[];portConstraint=eastwest;strokeColor=inherit;sketch=1;hachureGap=4;jiggle=2;curveFitting=1;fontFamily=Architects Daughter;fontSize=20;fontSource=https%3A%2F%2Ffonts.googleapis.com%2Fcss%3Ffamily%3DArchitects%2BDaughter;" vertex="1" parent="o1STPo-kF5ZtZgtK5Taq-0">
          <mxGeometry y="100" width="410" height="8" as="geometry" />
        </mxCell>
        <mxCell id="o1STPo-kF5ZtZgtK5Taq-3" value="+ RegisterEventHandler(ServiceHandler&lt;span style=&quot;background-color: initial;&quot;&gt;)&lt;br&gt;+ Run(stopCh)&lt;br&gt;&lt;/span&gt;" style="text;strokeColor=none;fillColor=none;align=left;verticalAlign=top;spacingLeft=4;spacingRight=4;overflow=hidden;rotatable=0;points=[[0,0.5],[1,0.5]];portConstraint=eastwest;whiteSpace=wrap;html=1;fontSize=20;fontFamily=Architects Daughter;fontSource=https%3A%2F%2Ffonts.googleapis.com%2Fcss%3Ffamily%3DArchitects%2BDaughter;" vertex="1" parent="o1STPo-kF5ZtZgtK5Taq-0">
          <mxGeometry y="108" width="410" height="122" as="geometry" />
        </mxCell>
        <mxCell id="o1STPo-kF5ZtZgtK5Taq-4" value="ipvs.Proixer" style="swimlane;fontStyle=1;align=center;verticalAlign=top;childLayout=stackLayout;horizontal=1;startSize=26;horizontalStack=0;resizeParent=1;resizeParentMax=0;resizeLast=0;collapsible=1;marginBottom=0;whiteSpace=wrap;html=1;sketch=1;hachureGap=4;jiggle=2;curveFitting=1;fontFamily=Architects Daughter;fontSize=20;fontSource=https%3A%2F%2Ffonts.googleapis.com%2Fcss%3Ffamily%3DArchitects%2BDaughter;" vertex="1" parent="WIyWlLk6GJQsqaUBKTNV-1">
          <mxGeometry x="180" y="680" width="500" height="188" as="geometry" />
        </mxCell>
        <mxCell id="o1STPo-kF5ZtZgtK5Taq-5" value="+&amp;nbsp;svcPortMap: map[ServicePortName]ServicePort&lt;span style=&quot;background-color: initial;&quot;&gt;&lt;br&gt;&lt;/span&gt;+&amp;nbsp;endpointsMap:&amp;nbsp;map[ServicePortName][]Endpoint" style="text;strokeColor=none;fillColor=none;align=left;verticalAlign=top;spacingLeft=4;spacingRight=4;overflow=hidden;rotatable=0;points=[[0,0.5],[1,0.5]];portConstraint=eastwest;whiteSpace=wrap;html=1;fontSize=20;fontFamily=Architects Daughter;fontSource=https%3A%2F%2Ffonts.googleapis.com%2Fcss%3Ffamily%3DArchitects%2BDaughter;" vertex="1" parent="o1STPo-kF5ZtZgtK5Taq-4">
          <mxGeometry y="26" width="500" height="64" as="geometry" />
        </mxCell>
        <mxCell id="o1STPo-kF5ZtZgtK5Taq-6" value="" style="line;strokeWidth=1;fillColor=none;align=left;verticalAlign=middle;spacingTop=-1;spacingLeft=3;spacingRight=3;rotatable=0;labelPosition=right;points=[];portConstraint=eastwest;strokeColor=inherit;sketch=1;hachureGap=4;jiggle=2;curveFitting=1;fontFamily=Architects Daughter;fontSize=20;fontSource=https%3A%2F%2Ffonts.googleapis.com%2Fcss%3Ffamily%3DArchitects%2BDaughter;" vertex="1" parent="o1STPo-kF5ZtZgtK5Taq-4">
          <mxGeometry y="90" width="500" height="8" as="geometry" />
        </mxCell>
        <mxCell id="o1STPo-kF5ZtZgtK5Taq-7" value="+&amp;nbsp;syncProxyRules()" style="text;strokeColor=none;fillColor=none;align=left;verticalAlign=top;spacingLeft=4;spacingRight=4;overflow=hidden;rotatable=0;points=[[0,0.5],[1,0.5]];portConstraint=eastwest;whiteSpace=wrap;html=1;fontSize=20;fontFamily=Architects Daughter;fontSource=https%3A%2F%2Ffonts.googleapis.com%2Fcss%3Ffamily%3DArchitects%2BDaughter;" vertex="1" parent="o1STPo-kF5ZtZgtK5Taq-4">
          <mxGeometry y="98" width="500" height="90" as="geometry" />
        </mxCell>
        <mxCell id="o1STPo-kF5ZtZgtK5Taq-8" value="Provider" style="swimlane;fontStyle=1;align=center;verticalAlign=top;childLayout=stackLayout;horizontal=1;startSize=26;horizontalStack=0;resizeParent=1;resizeParentMax=0;resizeLast=0;collapsible=1;marginBottom=0;whiteSpace=wrap;html=1;sketch=1;hachureGap=4;jiggle=2;curveFitting=1;fontFamily=Architects Daughter;fontSize=20;fontSource=https%3A%2F%2Ffonts.googleapis.com%2Fcss%3Ffamily%3DArchitects%2BDaughter;" vertex="1" parent="WIyWlLk6GJQsqaUBKTNV-1">
          <mxGeometry x="590" y="470" width="350" height="124" as="geometry" />
        </mxCell>
        <mxCell id="o1STPo-kF5ZtZgtK5Taq-10" value="" style="line;strokeWidth=1;fillColor=none;align=left;verticalAlign=middle;spacingTop=-1;spacingLeft=3;spacingRight=3;rotatable=0;labelPosition=right;points=[];portConstraint=eastwest;strokeColor=inherit;sketch=1;hachureGap=4;jiggle=2;curveFitting=1;fontFamily=Architects Daughter;fontSize=20;fontSource=https%3A%2F%2Ffonts.googleapis.com%2Fcss%3Ffamily%3DArchitects%2BDaughter;" vertex="1" parent="o1STPo-kF5ZtZgtK5Taq-8">
          <mxGeometry y="26" width="350" height="8" as="geometry" />
        </mxCell>
        <mxCell id="o1STPo-kF5ZtZgtK5Taq-11" value="+ Sync()" style="text;strokeColor=none;fillColor=none;align=left;verticalAlign=top;spacingLeft=4;spacingRight=4;overflow=hidden;rotatable=0;points=[[0,0.5],[1,0.5]];portConstraint=eastwest;whiteSpace=wrap;html=1;fontSize=20;fontFamily=Architects Daughter;fontSource=https%3A%2F%2Ffonts.googleapis.com%2Fcss%3Ffamily%3DArchitects%2BDaughter;" vertex="1" parent="o1STPo-kF5ZtZgtK5Taq-8">
          <mxGeometry y="34" width="350" height="90" as="geometry" />
        </mxCell>
        <mxCell id="o1STPo-kF5ZtZgtK5Taq-12" value="" style="endArrow=block;dashed=1;endFill=0;endSize=12;html=1;rounded=0;sketch=1;hachureGap=4;jiggle=2;curveFitting=1;fontFamily=Architects Daughter;fontSize=16;entryX=0.506;entryY=1.029;entryDx=0;entryDy=0;entryPerimeter=0;exitX=0.5;exitY=0;exitDx=0;exitDy=0;fontSource=https%3A%2F%2Ffonts.googleapis.com%2Fcss%3Ffamily%3DArchitects%2BDaughter;" edge="1" parent="WIyWlLk6GJQsqaUBKTNV-1" source="o1STPo-kF5ZtZgtK5Taq-4" target="o1STPo-kF5ZtZgtK5Taq-11">
          <mxGeometry width="160" relative="1" as="geometry">
            <mxPoint x="430" y="480" as="sourcePoint" />
            <mxPoint x="590" y="480" as="targetPoint" />
          </mxGeometry>
        </mxCell>
        <mxCell id="o1STPo-kF5ZtZgtK5Taq-13" value="iptables.Proixer" style="swimlane;fontStyle=1;align=center;verticalAlign=top;childLayout=stackLayout;horizontal=1;startSize=26;horizontalStack=0;resizeParent=1;resizeParentMax=0;resizeLast=0;collapsible=1;marginBottom=0;whiteSpace=wrap;html=1;sketch=1;hachureGap=4;jiggle=2;curveFitting=1;fontFamily=Architects Daughter;fontSize=20;fontSource=https%3A%2F%2Ffonts.googleapis.com%2Fcss%3Ffamily%3DArchitects%2BDaughter;" vertex="1" parent="WIyWlLk6GJQsqaUBKTNV-1">
          <mxGeometry x="760" y="680" width="350" height="188" as="geometry" />
        </mxCell>
        <mxCell id="o1STPo-kF5ZtZgtK5Taq-14" value="+ field: type" style="text;strokeColor=none;fillColor=none;align=left;verticalAlign=top;spacingLeft=4;spacingRight=4;overflow=hidden;rotatable=0;points=[[0,0.5],[1,0.5]];portConstraint=eastwest;whiteSpace=wrap;html=1;fontSize=20;fontFamily=Architects Daughter;fontSource=https%3A%2F%2Ffonts.googleapis.com%2Fcss%3Ffamily%3DArchitects%2BDaughter;" vertex="1" parent="o1STPo-kF5ZtZgtK5Taq-13">
          <mxGeometry y="26" width="350" height="64" as="geometry" />
        </mxCell>
        <mxCell id="o1STPo-kF5ZtZgtK5Taq-15" value="" style="line;strokeWidth=1;fillColor=none;align=left;verticalAlign=middle;spacingTop=-1;spacingLeft=3;spacingRight=3;rotatable=0;labelPosition=right;points=[];portConstraint=eastwest;strokeColor=inherit;sketch=1;hachureGap=4;jiggle=2;curveFitting=1;fontFamily=Architects Daughter;fontSize=20;fontSource=https%3A%2F%2Ffonts.googleapis.com%2Fcss%3Ffamily%3DArchitects%2BDaughter;" vertex="1" parent="o1STPo-kF5ZtZgtK5Taq-13">
          <mxGeometry y="90" width="350" height="8" as="geometry" />
        </mxCell>
        <mxCell id="o1STPo-kF5ZtZgtK5Taq-16" value="+&amp;nbsp;syncProxyRules()" style="text;strokeColor=none;fillColor=none;align=left;verticalAlign=top;spacingLeft=4;spacingRight=4;overflow=hidden;rotatable=0;points=[[0,0.5],[1,0.5]];portConstraint=eastwest;whiteSpace=wrap;html=1;fontSize=20;fontFamily=Architects Daughter;fontSource=https%3A%2F%2Ffonts.googleapis.com%2Fcss%3Ffamily%3DArchitects%2BDaughter;" vertex="1" parent="o1STPo-kF5ZtZgtK5Taq-13">
          <mxGeometry y="98" width="350" height="90" as="geometry" />
        </mxCell>
        <mxCell id="o1STPo-kF5ZtZgtK5Taq-17" value="" style="endArrow=block;dashed=1;endFill=0;endSize=12;html=1;rounded=0;sketch=1;hachureGap=4;jiggle=2;curveFitting=1;fontFamily=Architects Daughter;fontSize=16;entryX=0.495;entryY=1.011;entryDx=0;entryDy=0;entryPerimeter=0;exitX=0.5;exitY=0;exitDx=0;exitDy=0;fontSource=https%3A%2F%2Ffonts.googleapis.com%2Fcss%3Ffamily%3DArchitects%2BDaughter;" edge="1" parent="WIyWlLk6GJQsqaUBKTNV-1" source="o1STPo-kF5ZtZgtK5Taq-13" target="o1STPo-kF5ZtZgtK5Taq-11">
          <mxGeometry width="160" relative="1" as="geometry">
            <mxPoint x="525" y="690" as="sourcePoint" />
            <mxPoint x="777" y="607" as="targetPoint" />
          </mxGeometry>
        </mxCell>
        <mxCell id="2DciwQaXXBMlmZ25dYA4-0" value="IPSet" style="swimlane;fontStyle=1;align=center;verticalAlign=top;childLayout=stackLayout;horizontal=1;startSize=26;horizontalStack=0;resizeParent=1;resizeParentMax=0;resizeLast=0;collapsible=1;marginBottom=0;whiteSpace=wrap;html=1;sketch=1;hachureGap=4;jiggle=2;curveFitting=1;fontFamily=Architects Daughter;fontSize=20;fontSource=https%3A%2F%2Ffonts.googleapis.com%2Fcss%3Ffamily%3DArchitects%2BDaughter;" vertex="1" parent="WIyWlLk6GJQsqaUBKTNV-1">
          <mxGeometry x="-1040" y="920" width="330" height="120" as="geometry" />
        </mxCell>
        <mxCell id="2DciwQaXXBMlmZ25dYA4-1" value="+ field: type" style="text;strokeColor=none;fillColor=none;align=left;verticalAlign=top;spacingLeft=4;spacingRight=4;overflow=hidden;rotatable=0;points=[[0,0.5],[1,0.5]];portConstraint=eastwest;whiteSpace=wrap;html=1;fontSize=20;fontFamily=Architects Daughter;fontSource=https%3A%2F%2Ffonts.googleapis.com%2Fcss%3Ffamily%3DArchitects%2BDaughter;" vertex="1" parent="2DciwQaXXBMlmZ25dYA4-0">
          <mxGeometry y="26" width="330" height="26" as="geometry" />
        </mxCell>
        <mxCell id="2DciwQaXXBMlmZ25dYA4-2" value="" style="line;strokeWidth=1;fillColor=none;align=left;verticalAlign=middle;spacingTop=-1;spacingLeft=3;spacingRight=3;rotatable=0;labelPosition=right;points=[];portConstraint=eastwest;strokeColor=inherit;sketch=1;hachureGap=4;jiggle=2;curveFitting=1;fontFamily=Architects Daughter;fontSize=20;fontSource=https%3A%2F%2Ffonts.googleapis.com%2Fcss%3Ffamily%3DArchitects%2BDaughter;" vertex="1" parent="2DciwQaXXBMlmZ25dYA4-0">
          <mxGeometry y="52" width="330" height="8" as="geometry" />
        </mxCell>
        <mxCell id="2DciwQaXXBMlmZ25dYA4-3" value="+ syncIPSetEntries()" style="text;strokeColor=none;fillColor=none;align=left;verticalAlign=top;spacingLeft=4;spacingRight=4;overflow=hidden;rotatable=0;points=[[0,0.5],[1,0.5]];portConstraint=eastwest;whiteSpace=wrap;html=1;fontSize=20;fontFamily=Architects Daughter;fontSource=https%3A%2F%2Ffonts.googleapis.com%2Fcss%3Ffamily%3DArchitects%2BDaughter;" vertex="1" parent="2DciwQaXXBMlmZ25dYA4-0">
          <mxGeometry y="60" width="330" height="60" as="geometry" />
        </mxCell>
        <mxCell id="2DciwQaXXBMlmZ25dYA4-4" value="ipset.Interface" style="swimlane;fontStyle=1;align=center;verticalAlign=top;childLayout=stackLayout;horizontal=1;startSize=26;horizontalStack=0;resizeParent=1;resizeParentMax=0;resizeLast=0;collapsible=1;marginBottom=0;whiteSpace=wrap;html=1;sketch=1;hachureGap=4;jiggle=2;curveFitting=1;fontFamily=Architects Daughter;fontSize=20;fontSource=https%3A%2F%2Ffonts.googleapis.com%2Fcss%3Ffamily%3DArchitects%2BDaughter;" vertex="1" parent="WIyWlLk6GJQsqaUBKTNV-1">
          <mxGeometry x="-1200" y="1150" width="610" height="180" as="geometry" />
        </mxCell>
        <mxCell id="2DciwQaXXBMlmZ25dYA4-6" value="" style="line;strokeWidth=1;fillColor=none;align=left;verticalAlign=middle;spacingTop=-1;spacingLeft=3;spacingRight=3;rotatable=0;labelPosition=right;points=[];portConstraint=eastwest;strokeColor=inherit;sketch=1;hachureGap=4;jiggle=2;curveFitting=1;fontFamily=Architects Daughter;fontSize=20;fontSource=https%3A%2F%2Ffonts.googleapis.com%2Fcss%3Ffamily%3DArchitects%2BDaughter;" vertex="1" parent="2DciwQaXXBMlmZ25dYA4-4">
          <mxGeometry y="26" width="610" height="8" as="geometry" />
        </mxCell>
        <mxCell id="2DciwQaXXBMlmZ25dYA4-7" value="+&amp;nbsp;ListEntries(set string) ([]string, error)&lt;br&gt;+&amp;nbsp;AddEntry(entry string, set *IPSet, ignoreExistErr bool) error&lt;br&gt;+ DelEntry(entry string, set string) error" style="text;strokeColor=none;fillColor=none;align=left;verticalAlign=top;spacingLeft=4;spacingRight=4;overflow=hidden;rotatable=0;points=[[0,0.5],[1,0.5]];portConstraint=eastwest;whiteSpace=wrap;html=1;fontSize=20;fontFamily=Architects Daughter;fontSource=https%3A%2F%2Ffonts.googleapis.com%2Fcss%3Ffamily%3DArchitects%2BDaughter;" vertex="1" parent="2DciwQaXXBMlmZ25dYA4-4">
          <mxGeometry y="34" width="610" height="146" as="geometry" />
        </mxCell>
        <mxCell id="2DciwQaXXBMlmZ25dYA4-8" value="runner" style="swimlane;fontStyle=1;align=center;verticalAlign=top;childLayout=stackLayout;horizontal=1;startSize=26;horizontalStack=0;resizeParent=1;resizeParentMax=0;resizeLast=0;collapsible=1;marginBottom=0;whiteSpace=wrap;html=1;sketch=1;hachureGap=4;jiggle=2;curveFitting=1;fontFamily=Architects Daughter;fontSize=20;fontSource=https%3A%2F%2Ffonts.googleapis.com%2Fcss%3Ffamily%3DArchitects%2BDaughter;" vertex="1" parent="WIyWlLk6GJQsqaUBKTNV-1">
          <mxGeometry x="-1730" y="1400" width="610" height="180" as="geometry" />
        </mxCell>
        <mxCell id="2DciwQaXXBMlmZ25dYA4-9" value="-&amp;nbsp;exec utilexec.Interface" style="text;strokeColor=none;fillColor=none;align=left;verticalAlign=top;spacingLeft=4;spacingRight=4;overflow=hidden;rotatable=0;points=[[0,0.5],[1,0.5]];portConstraint=eastwest;whiteSpace=wrap;html=1;fontSize=20;fontFamily=Architects Daughter;fontSource=https%3A%2F%2Ffonts.googleapis.com%2Fcss%3Ffamily%3DArchitects%2BDaughter;" vertex="1" parent="2DciwQaXXBMlmZ25dYA4-8">
          <mxGeometry y="26" width="610" height="26" as="geometry" />
        </mxCell>
        <mxCell id="2DciwQaXXBMlmZ25dYA4-10" value="" style="line;strokeWidth=1;fillColor=none;align=left;verticalAlign=middle;spacingTop=-1;spacingLeft=3;spacingRight=3;rotatable=0;labelPosition=right;points=[];portConstraint=eastwest;strokeColor=inherit;sketch=1;hachureGap=4;jiggle=2;curveFitting=1;fontFamily=Architects Daughter;fontSize=20;fontSource=https%3A%2F%2Ffonts.googleapis.com%2Fcss%3Ffamily%3DArchitects%2BDaughter;" vertex="1" parent="2DciwQaXXBMlmZ25dYA4-8">
          <mxGeometry y="52" width="610" height="8" as="geometry" />
        </mxCell>
        <mxCell id="2DciwQaXXBMlmZ25dYA4-11" value="+&amp;nbsp;ListEntries(set string) ([]string, error)&lt;br style=&quot;border-color: var(--border-color);&quot;&gt;+&amp;nbsp;AddEntry(entry string, set *IPSet, ignoreExistErr bool) error&lt;br style=&quot;border-color: var(--border-color);&quot;&gt;+ DelEntry(entry string, set string) error" style="text;strokeColor=none;fillColor=none;align=left;verticalAlign=top;spacingLeft=4;spacingRight=4;overflow=hidden;rotatable=0;points=[[0,0.5],[1,0.5]];portConstraint=eastwest;whiteSpace=wrap;html=1;fontSize=20;fontFamily=Architects Daughter;fontSource=https%3A%2F%2Ffonts.googleapis.com%2Fcss%3Ffamily%3DArchitects%2BDaughter;" vertex="1" parent="2DciwQaXXBMlmZ25dYA4-8">
          <mxGeometry y="60" width="610" height="120" as="geometry" />
        </mxCell>
        <mxCell id="2DciwQaXXBMlmZ25dYA4-12" value="safeIpset" style="swimlane;fontStyle=1;align=center;verticalAlign=top;childLayout=stackLayout;horizontal=1;startSize=26;horizontalStack=0;resizeParent=1;resizeParentMax=0;resizeLast=0;collapsible=1;marginBottom=0;whiteSpace=wrap;html=1;sketch=1;hachureGap=4;jiggle=2;curveFitting=1;fontFamily=Architects Daughter;fontSize=20;fontSource=https%3A%2F%2Ffonts.googleapis.com%2Fcss%3Ffamily%3DArchitects%2BDaughter;" vertex="1" parent="WIyWlLk6GJQsqaUBKTNV-1">
          <mxGeometry x="-870" y="1380" width="610" height="230" as="geometry" />
        </mxCell>
        <mxCell id="2DciwQaXXBMlmZ25dYA4-13" value="-&amp;nbsp;&lt;span style=&quot;background-color: initial;&quot;&gt;ipset ipset.Interface 实际上是runner&lt;/span&gt;&lt;div&gt;&lt;span style=&quot;&quot;&gt;&lt;span style=&quot;white-space: pre;&quot;&gt;- &lt;/span&gt;&lt;/span&gt;mu&amp;nbsp; &amp;nbsp; sync.Mutex&lt;/div&gt;" style="text;strokeColor=none;fillColor=none;align=left;verticalAlign=top;spacingLeft=4;spacingRight=4;overflow=hidden;rotatable=0;points=[[0,0.5],[1,0.5]];portConstraint=eastwest;whiteSpace=wrap;html=1;fontSize=20;fontFamily=Architects Daughter;fontSource=https%3A%2F%2Ffonts.googleapis.com%2Fcss%3Ffamily%3DArchitects%2BDaughter;" vertex="1" parent="2DciwQaXXBMlmZ25dYA4-12">
          <mxGeometry y="26" width="610" height="94" as="geometry" />
        </mxCell>
        <mxCell id="2DciwQaXXBMlmZ25dYA4-14" value="" style="line;strokeWidth=1;fillColor=none;align=left;verticalAlign=middle;spacingTop=-1;spacingLeft=3;spacingRight=3;rotatable=0;labelPosition=right;points=[];portConstraint=eastwest;strokeColor=inherit;sketch=1;hachureGap=4;jiggle=2;curveFitting=1;fontFamily=Architects Daughter;fontSize=20;fontSource=https%3A%2F%2Ffonts.googleapis.com%2Fcss%3Ffamily%3DArchitects%2BDaughter;" vertex="1" parent="2DciwQaXXBMlmZ25dYA4-12">
          <mxGeometry y="120" width="610" height="8" as="geometry" />
        </mxCell>
        <mxCell id="2DciwQaXXBMlmZ25dYA4-15" value="+&amp;nbsp;ListEntries(set string) ([]string, error)&lt;br style=&quot;border-color: var(--border-color);&quot;&gt;+&amp;nbsp;AddEntry(entry string, set *IPSet, ignoreExistErr bool) error&lt;br style=&quot;border-color: var(--border-color);&quot;&gt;+ DelEntry(entry string, set string) error" style="text;strokeColor=none;fillColor=none;align=left;verticalAlign=top;spacingLeft=4;spacingRight=4;overflow=hidden;rotatable=0;points=[[0,0.5],[1,0.5]];portConstraint=eastwest;whiteSpace=wrap;html=1;fontSize=20;fontFamily=Architects Daughter;fontSource=https%3A%2F%2Ffonts.googleapis.com%2Fcss%3Ffamily%3DArchitects%2BDaughter;" vertex="1" parent="2DciwQaXXBMlmZ25dYA4-12">
          <mxGeometry y="128" width="610" height="102" as="geometry" />
        </mxCell>
        <mxCell id="2DciwQaXXBMlmZ25dYA4-16" value="" style="endArrow=block;dashed=1;endFill=0;endSize=12;html=1;rounded=0;sketch=1;hachureGap=4;jiggle=2;curveFitting=1;fontFamily=Architects Daughter;fontSource=https%3A%2F%2Ffonts.googleapis.com%2Fcss%3Ffamily%3DArchitects%2BDaughter;fontSize=16;entryX=0.484;entryY=1.034;entryDx=0;entryDy=0;entryPerimeter=0;exitX=0.478;exitY=-0.003;exitDx=0;exitDy=0;exitPerimeter=0;" edge="1" parent="WIyWlLk6GJQsqaUBKTNV-1" source="2DciwQaXXBMlmZ25dYA4-12" target="2DciwQaXXBMlmZ25dYA4-7">
          <mxGeometry width="160" relative="1" as="geometry">
            <mxPoint x="-860" y="1290" as="sourcePoint" />
            <mxPoint x="-700" y="1290" as="targetPoint" />
          </mxGeometry>
        </mxCell>
        <mxCell id="2DciwQaXXBMlmZ25dYA4-17" value="" style="endArrow=block;dashed=1;endFill=0;endSize=12;html=1;rounded=0;sketch=1;hachureGap=4;jiggle=2;curveFitting=1;fontFamily=Architects Daughter;fontSource=https%3A%2F%2Ffonts.googleapis.com%2Fcss%3Ffamily%3DArchitects%2BDaughter;fontSize=16;entryX=0.473;entryY=1.013;entryDx=0;entryDy=0;entryPerimeter=0;exitX=0.5;exitY=0;exitDx=0;exitDy=0;" edge="1" parent="WIyWlLk6GJQsqaUBKTNV-1" source="2DciwQaXXBMlmZ25dYA4-8" target="2DciwQaXXBMlmZ25dYA4-7">
          <mxGeometry width="160" relative="1" as="geometry">
            <mxPoint x="-640" y="1389" as="sourcePoint" />
            <mxPoint x="-882" y="1273" as="targetPoint" />
          </mxGeometry>
        </mxCell>
        <mxCell id="2DciwQaXXBMlmZ25dYA4-18" value="utilexec.Interface" style="swimlane;fontStyle=1;align=center;verticalAlign=top;childLayout=stackLayout;horizontal=1;startSize=26;horizontalStack=0;resizeParent=1;resizeParentMax=0;resizeLast=0;collapsible=1;marginBottom=0;whiteSpace=wrap;html=1;sketch=1;hachureGap=4;jiggle=2;curveFitting=1;fontFamily=Architects Daughter;fontSize=20;fontSource=https%3A%2F%2Ffonts.googleapis.com%2Fcss%3Ffamily%3DArchitects%2BDaughter;" vertex="1" parent="WIyWlLk6GJQsqaUBKTNV-1">
          <mxGeometry x="-2030" y="1642" width="530" height="114" as="geometry" />
        </mxCell>
        <mxCell id="2DciwQaXXBMlmZ25dYA4-20" value="" style="line;strokeWidth=1;fillColor=none;align=left;verticalAlign=middle;spacingTop=-1;spacingLeft=3;spacingRight=3;rotatable=0;labelPosition=right;points=[];portConstraint=eastwest;strokeColor=inherit;sketch=1;hachureGap=4;jiggle=2;curveFitting=1;fontFamily=Architects Daughter;fontSize=20;fontSource=https%3A%2F%2Ffonts.googleapis.com%2Fcss%3Ffamily%3DArchitects%2BDaughter;" vertex="1" parent="2DciwQaXXBMlmZ25dYA4-18">
          <mxGeometry y="26" width="530" height="8" as="geometry" />
        </mxCell>
        <mxCell id="2DciwQaXXBMlmZ25dYA4-21" value="+ Command(cmd string, args ...string) Cmd" style="text;strokeColor=none;fillColor=none;align=left;verticalAlign=top;spacingLeft=4;spacingRight=4;overflow=hidden;rotatable=0;points=[[0,0.5],[1,0.5]];portConstraint=eastwest;whiteSpace=wrap;html=1;fontSize=20;fontFamily=Architects Daughter;fontSource=https%3A%2F%2Ffonts.googleapis.com%2Fcss%3Ffamily%3DArchitects%2BDaughter;" vertex="1" parent="2DciwQaXXBMlmZ25dYA4-18">
          <mxGeometry y="34" width="530" height="80" as="geometry" />
        </mxCell>
        <mxCell id="2DciwQaXXBMlmZ25dYA4-23" style="edgeStyle=orthogonalEdgeStyle;rounded=0;sketch=1;hachureGap=4;jiggle=2;curveFitting=1;orthogonalLoop=1;jettySize=auto;html=1;exitX=0;exitY=0.5;exitDx=0;exitDy=0;entryX=0.5;entryY=0;entryDx=0;entryDy=0;fontFamily=Architects Daughter;fontSource=https%3A%2F%2Ffonts.googleapis.com%2Fcss%3Ffamily%3DArchitects%2BDaughter;fontSize=16;" edge="1" parent="WIyWlLk6GJQsqaUBKTNV-1" source="2DciwQaXXBMlmZ25dYA4-9" target="2DciwQaXXBMlmZ25dYA4-18">
          <mxGeometry relative="1" as="geometry" />
        </mxCell>
        <mxCell id="2DciwQaXXBMlmZ25dYA4-24" value="use" style="edgeLabel;html=1;align=center;verticalAlign=middle;resizable=0;points=[];fontSize=20;fontFamily=Architects Daughter;" vertex="1" connectable="0" parent="2DciwQaXXBMlmZ25dYA4-23">
          <mxGeometry x="0.1236" y="-1" relative="1" as="geometry">
            <mxPoint as="offset" />
          </mxGeometry>
        </mxCell>
        <mxCell id="2DciwQaXXBMlmZ25dYA4-25" value="exec.exector" style="swimlane;fontStyle=1;align=center;verticalAlign=top;childLayout=stackLayout;horizontal=1;startSize=26;horizontalStack=0;resizeParent=1;resizeParentMax=0;resizeLast=0;collapsible=1;marginBottom=0;whiteSpace=wrap;html=1;sketch=1;hachureGap=4;jiggle=2;curveFitting=1;fontFamily=Architects Daughter;fontSize=20;fontSource=https%3A%2F%2Ffonts.googleapis.com%2Fcss%3Ffamily%3DArchitects%2BDaughter;" vertex="1" parent="WIyWlLk6GJQsqaUBKTNV-1">
          <mxGeometry x="-2020" y="1875" width="530" height="114" as="geometry" />
        </mxCell>
        <mxCell id="2DciwQaXXBMlmZ25dYA4-26" value="" style="line;strokeWidth=1;fillColor=none;align=left;verticalAlign=middle;spacingTop=-1;spacingLeft=3;spacingRight=3;rotatable=0;labelPosition=right;points=[];portConstraint=eastwest;strokeColor=inherit;sketch=1;hachureGap=4;jiggle=2;curveFitting=1;fontFamily=Architects Daughter;fontSize=20;fontSource=https%3A%2F%2Ffonts.googleapis.com%2Fcss%3Ffamily%3DArchitects%2BDaughter;" vertex="1" parent="2DciwQaXXBMlmZ25dYA4-25">
          <mxGeometry y="26" width="530" height="8" as="geometry" />
        </mxCell>
        <mxCell id="2DciwQaXXBMlmZ25dYA4-27" value="+ Command(cmd string, args ...string) Cmd" style="text;strokeColor=none;fillColor=none;align=left;verticalAlign=top;spacingLeft=4;spacingRight=4;overflow=hidden;rotatable=0;points=[[0,0.5],[1,0.5]];portConstraint=eastwest;whiteSpace=wrap;html=1;fontSize=20;fontFamily=Architects Daughter;fontSource=https%3A%2F%2Ffonts.googleapis.com%2Fcss%3Ffamily%3DArchitects%2BDaughter;" vertex="1" parent="2DciwQaXXBMlmZ25dYA4-25">
          <mxGeometry y="34" width="530" height="80" as="geometry" />
        </mxCell>
        <mxCell id="2DciwQaXXBMlmZ25dYA4-30" value="" style="endArrow=block;dashed=1;endFill=0;endSize=12;html=1;rounded=0;sketch=1;hachureGap=4;jiggle=2;curveFitting=1;fontFamily=Architects Daughter;fontSource=https%3A%2F%2Ffonts.googleapis.com%2Fcss%3Ffamily%3DArchitects%2BDaughter;fontSize=16;entryX=0.51;entryY=1.067;entryDx=0;entryDy=0;entryPerimeter=0;exitX=0.5;exitY=0;exitDx=0;exitDy=0;" edge="1" parent="WIyWlLk6GJQsqaUBKTNV-1" source="2DciwQaXXBMlmZ25dYA4-25" target="2DciwQaXXBMlmZ25dYA4-21">
          <mxGeometry width="160" relative="1" as="geometry">
            <mxPoint x="-1455" y="1410" as="sourcePoint" />
            <mxPoint x="-1177" y="1266" as="targetPoint" />
          </mxGeometry>
        </mxCell>
        <mxCell id="2DciwQaXXBMlmZ25dYA4-36" style="edgeStyle=orthogonalEdgeStyle;rounded=0;sketch=1;hachureGap=4;jiggle=2;curveFitting=1;orthogonalLoop=1;jettySize=auto;html=1;exitX=0;exitY=0.5;exitDx=0;exitDy=0;entryX=0.5;entryY=0;entryDx=0;entryDy=0;fontFamily=Architects Daughter;fontSource=https%3A%2F%2Ffonts.googleapis.com%2Fcss%3Ffamily%3DArchitects%2BDaughter;fontSize=16;" edge="1" parent="WIyWlLk6GJQsqaUBKTNV-1" source="2DciwQaXXBMlmZ25dYA4-1" target="2DciwQaXXBMlmZ25dYA4-4">
          <mxGeometry relative="1" as="geometry">
            <mxPoint x="-1720" y="1449" as="sourcePoint" />
            <mxPoint x="-1755" y="1652" as="targetPoint" />
          </mxGeometry>
        </mxCell>
        <mxCell id="2DciwQaXXBMlmZ25dYA4-37" value="use" style="edgeLabel;html=1;align=center;verticalAlign=middle;resizable=0;points=[];fontSize=20;fontFamily=Architects Daughter;" vertex="1" connectable="0" parent="2DciwQaXXBMlmZ25dYA4-36">
          <mxGeometry x="0.1236" y="-1" relative="1" as="geometry">
            <mxPoint as="offset" />
          </mxGeometry>
        </mxCell>
        <mxCell id="2DciwQaXXBMlmZ25dYA4-38" style="edgeStyle=orthogonalEdgeStyle;rounded=0;sketch=1;hachureGap=4;jiggle=2;curveFitting=1;orthogonalLoop=1;jettySize=auto;html=1;exitX=-0.009;exitY=0.279;exitDx=0;exitDy=0;entryX=0.5;entryY=0;entryDx=0;entryDy=0;fontFamily=Architects Daughter;fontSource=https%3A%2F%2Ffonts.googleapis.com%2Fcss%3Ffamily%3DArchitects%2BDaughter;fontSize=16;exitPerimeter=0;" edge="1" parent="WIyWlLk6GJQsqaUBKTNV-1" source="o1STPo-kF5ZtZgtK5Taq-5" target="2DciwQaXXBMlmZ25dYA4-0">
          <mxGeometry relative="1" as="geometry">
            <mxPoint x="260" y="1019" as="sourcePoint" />
            <mxPoint x="405" y="1210" as="targetPoint" />
            <Array as="points">
              <mxPoint x="-875" y="724" />
            </Array>
          </mxGeometry>
        </mxCell>
        <mxCell id="2DciwQaXXBMlmZ25dYA4-39" value="use" style="edgeLabel;html=1;align=center;verticalAlign=middle;resizable=0;points=[];fontSize=20;fontFamily=Architects Daughter;" vertex="1" connectable="0" parent="2DciwQaXXBMlmZ25dYA4-38">
          <mxGeometry x="0.1236" y="-1" relative="1" as="geometry">
            <mxPoint as="offset" />
          </mxGeometry>
        </mxCell>
        <mxCell id="2DciwQaXXBMlmZ25dYA4-40" value="utilipvs.Interface" style="swimlane;fontStyle=1;align=center;verticalAlign=top;childLayout=stackLayout;horizontal=1;startSize=26;horizontalStack=0;resizeParent=1;resizeParentMax=0;resizeLast=0;collapsible=1;marginBottom=0;whiteSpace=wrap;html=1;sketch=1;hachureGap=4;jiggle=2;curveFitting=1;fontFamily=Architects Daughter;fontSize=20;fontSource=https%3A%2F%2Ffonts.googleapis.com%2Fcss%3Ffamily%3DArchitects%2BDaughter;" vertex="1" parent="WIyWlLk6GJQsqaUBKTNV-1">
          <mxGeometry x="70" y="930" width="330" height="140" as="geometry" />
        </mxCell>
        <mxCell id="2DciwQaXXBMlmZ25dYA4-42" value="" style="line;strokeWidth=1;fillColor=none;align=left;verticalAlign=middle;spacingTop=-1;spacingLeft=3;spacingRight=3;rotatable=0;labelPosition=right;points=[];portConstraint=eastwest;strokeColor=inherit;sketch=1;hachureGap=4;jiggle=2;curveFitting=1;fontFamily=Architects Daughter;fontSize=20;fontSource=https%3A%2F%2Ffonts.googleapis.com%2Fcss%3Ffamily%3DArchitects%2BDaughter;" vertex="1" parent="2DciwQaXXBMlmZ25dYA4-40">
          <mxGeometry y="26" width="330" height="8" as="geometry" />
        </mxCell>
        <mxCell id="2DciwQaXXBMlmZ25dYA4-43" value="+&amp;nbsp;GetVirtualServer&lt;br&gt;+&amp;nbsp;UpdateVirtualServer&lt;br&gt;+&amp;nbsp;AddRealServer" style="text;strokeColor=none;fillColor=none;align=left;verticalAlign=top;spacingLeft=4;spacingRight=4;overflow=hidden;rotatable=0;points=[[0,0.5],[1,0.5]];portConstraint=eastwest;whiteSpace=wrap;html=1;fontSize=20;fontFamily=Architects Daughter;fontSource=https%3A%2F%2Ffonts.googleapis.com%2Fcss%3Ffamily%3DArchitects%2BDaughter;" vertex="1" parent="2DciwQaXXBMlmZ25dYA4-40">
          <mxGeometry y="34" width="330" height="106" as="geometry" />
        </mxCell>
        <mxCell id="2DciwQaXXBMlmZ25dYA4-44" value="ipvs.runner" style="swimlane;fontStyle=1;align=center;verticalAlign=top;childLayout=stackLayout;horizontal=1;startSize=26;horizontalStack=0;resizeParent=1;resizeParentMax=0;resizeLast=0;collapsible=1;marginBottom=0;whiteSpace=wrap;html=1;sketch=1;hachureGap=4;jiggle=2;curveFitting=1;fontFamily=Architects Daughter;fontSource=https%3A%2F%2Ffonts.googleapis.com%2Fcss%3Ffamily%3DArchitects%2BDaughter;fontSize=20;" vertex="1" parent="WIyWlLk6GJQsqaUBKTNV-1">
          <mxGeometry x="155" y="1120" width="160" height="86" as="geometry" />
        </mxCell>
        <mxCell id="2DciwQaXXBMlmZ25dYA4-45" value="+ field: type" style="text;strokeColor=none;fillColor=none;align=left;verticalAlign=top;spacingLeft=4;spacingRight=4;overflow=hidden;rotatable=0;points=[[0,0.5],[1,0.5]];portConstraint=eastwest;whiteSpace=wrap;html=1;fontSize=20;fontFamily=Architects Daughter;" vertex="1" parent="2DciwQaXXBMlmZ25dYA4-44">
          <mxGeometry y="26" width="160" height="26" as="geometry" />
        </mxCell>
        <mxCell id="2DciwQaXXBMlmZ25dYA4-46" value="" style="line;strokeWidth=1;fillColor=none;align=left;verticalAlign=middle;spacingTop=-1;spacingLeft=3;spacingRight=3;rotatable=0;labelPosition=right;points=[];portConstraint=eastwest;strokeColor=inherit;sketch=1;hachureGap=4;jiggle=2;curveFitting=1;fontFamily=Architects Daughter;fontSource=https%3A%2F%2Ffonts.googleapis.com%2Fcss%3Ffamily%3DArchitects%2BDaughter;fontSize=20;" vertex="1" parent="2DciwQaXXBMlmZ25dYA4-44">
          <mxGeometry y="52" width="160" height="8" as="geometry" />
        </mxCell>
        <mxCell id="2DciwQaXXBMlmZ25dYA4-47" value="+ method(type): type" style="text;strokeColor=none;fillColor=none;align=left;verticalAlign=top;spacingLeft=4;spacingRight=4;overflow=hidden;rotatable=0;points=[[0,0.5],[1,0.5]];portConstraint=eastwest;whiteSpace=wrap;html=1;fontSize=20;fontFamily=Architects Daughter;" vertex="1" parent="2DciwQaXXBMlmZ25dYA4-44">
          <mxGeometry y="60" width="160" height="26" as="geometry" />
        </mxCell>
        <mxCell id="2DciwQaXXBMlmZ25dYA4-48" value="" style="endArrow=block;dashed=1;endFill=0;endSize=12;html=1;rounded=0;sketch=1;hachureGap=4;jiggle=2;curveFitting=1;fontFamily=Architects Daughter;fontSize=16;entryX=0.51;entryY=1.007;entryDx=0;entryDy=0;entryPerimeter=0;fontSource=https%3A%2F%2Ffonts.googleapis.com%2Fcss%3Ffamily%3DArchitects%2BDaughter;" edge="1" parent="WIyWlLk6GJQsqaUBKTNV-1" source="2DciwQaXXBMlmZ25dYA4-44" target="2DciwQaXXBMlmZ25dYA4-43">
          <mxGeometry width="160" relative="1" as="geometry">
            <mxPoint x="440" y="690" as="sourcePoint" />
            <mxPoint x="777" y="607" as="targetPoint" />
          </mxGeometry>
        </mxCell>
        <mxCell id="2DciwQaXXBMlmZ25dYA4-52" style="edgeStyle=orthogonalEdgeStyle;rounded=0;sketch=1;hachureGap=4;jiggle=2;curveFitting=1;orthogonalLoop=1;jettySize=auto;html=1;exitX=0;exitY=0.5;exitDx=0;exitDy=0;entryX=0.5;entryY=0;entryDx=0;entryDy=0;fontFamily=Architects Daughter;fontSource=https%3A%2F%2Ffonts.googleapis.com%2Fcss%3Ffamily%3DArchitects%2BDaughter;fontSize=16;" edge="1" parent="WIyWlLk6GJQsqaUBKTNV-1" source="o1STPo-kF5ZtZgtK5Taq-5" target="2DciwQaXXBMlmZ25dYA4-40">
          <mxGeometry relative="1" as="geometry">
            <mxPoint x="186" y="734" as="sourcePoint" />
            <mxPoint x="-865" y="930" as="targetPoint" />
            <Array as="points">
              <mxPoint x="180" y="734" />
              <mxPoint x="90" y="734" />
              <mxPoint x="90" y="890" />
              <mxPoint x="235" y="890" />
            </Array>
          </mxGeometry>
        </mxCell>
        <mxCell id="2DciwQaXXBMlmZ25dYA4-53" value="use" style="edgeLabel;html=1;align=center;verticalAlign=middle;resizable=0;points=[];fontSize=20;fontFamily=Architects Daughter;" vertex="1" connectable="0" parent="2DciwQaXXBMlmZ25dYA4-52">
          <mxGeometry x="0.1236" y="-1" relative="1" as="geometry">
            <mxPoint as="offset" />
          </mxGeometry>
        </mxCell>
      </root>
    </mxGraphModel>
  </diagram>
  <diagram id="OBHF0sHBRXsvunAEh3xL" name="kube-proxy-flow-diagram">
    <mxGraphModel dx="1100" dy="902" grid="1" gridSize="10" guides="1" tooltips="1" connect="1" arrows="1" fold="1" page="1" pageScale="1" pageWidth="827" pageHeight="1169" math="0" shadow="0">
      <root>
        <mxCell id="0" />
        <mxCell id="1" parent="0" />
        <mxCell id="pVXeLWSRUXHJctmgIgUR-1" value="" style="rounded=0;whiteSpace=wrap;html=1;sketch=1;hachureGap=4;jiggle=2;curveFitting=1;fontFamily=Architects Daughter;fontSource=https%3A%2F%2Ffonts.googleapis.com%2Fcss%3Ffamily%3DArchitects%2BDaughter;fontSize=20;" vertex="1" parent="1">
          <mxGeometry x="30" y="340" width="120" height="60" as="geometry" />
        </mxCell>
      </root>
    </mxGraphModel>
  </diagram>
</mxfile>
